# xmcd CD database file
#
# Track frame offsets:
#	150
#	15196
#	30140
#	46044
#	60013
#	72505
#	86794
#	101505
#	116964
#	128158
#	145320
#	164419
#	176508
#	187892
#	202361
#	213602
#	225716
#	244263
#	262789
#	273301
#
# Disc length: 3767 seconds
#
# Revision: 0
# Processed by: cddbd v1.4PL0 Copyright (c) Steve Scherf et al.
# Submitted via: CDex 1.50
#
DISCID=130eb514
DTITLE=Art Tatum Trio - Art Tatum Trio
DYEAR=1900
DGENRE=Jazz
TTITLE0=Melody in F
TTITLE1=September Song
TTITLE2=Would You Like to Take a Walk
TTITLE3=Tea for Two
TTITLE4=Out of Nowhere
TTITLE5=Lover
TTITLE6=Just One of Those Things
TTITLE7=Indiana
TTITLE8=Cocktails for Two
TTITLE9=Tenderly
TTITLE10=The Man I Love
TTITLE11=Art's Blues
TTITLE12=St. Louis Blues
TTITLE13=Stompin' at the Savoy
TTITLE14=Battery Bounce
TTITLE15=With Plenty of Money and You
TTITLE16=Jitterbug Waltz
TTITLE17=I Cover the Waterfront
TTITLE18=Humoresque
TTITLE19=Hallelujah
EXTD=
EXTT0=
EXTT1=
EXTT2=
EXTT3=
EXTT4=
EXTT5=
EXTT6=
EXTT7=
EXTT8=
EXTT9=
EXTT10=
EXTT11=
EXTT12=
EXTT13=
EXTT14=
EXTT15=
EXTT16=
EXTT17=
EXTT18=
EXTT19=
PLAYORDER=
